<svg id="Layer_1" data-name="Layer 1" xmlns="http://www.w3.org/2000/svg" viewBox="0 0 1293.15 295.13"><defs><style>.cls-1{fill:#6b4193;}.cls-2{fill:none;stroke:#391563;stroke-linecap:square;stroke-miterlimit:10;stroke-width:11px;}.cls-3{fill:#fff;}</style></defs><title>nav-final</title><path class="cls-1" d="M279.15,189.22V105H257.84V87.46h21.31V52.3h20V87.46h26.1V105h-26.1V185c0,9.59,4.26,16.51,13.05,16.51,5.6,0,10.92-2.39,13.59-5.32l5.86,14.91c-5.06,4.8-12.26,8.26-24,8.26C288.74,219.32,279.15,208.4,279.15,189.22Z"/><path class="cls-1" d="M433.92,201.47c-10.66,11.72-25.31,17.85-42.62,17.85-21.85,0-45-14.65-45-42.62,0-28.77,23.17-42.36,45-42.36,17.58,0,32.23,5.6,42.62,17.59V128.75c0-17.32-13.85-27.17-32.5-27.17-15.45,0-28,5.59-39.42,17.85l-9.33-13.85C366.52,91.19,383,84.26,404.08,84.26c27.18,0,49.82,12.26,49.82,43.42v88.44h-20Zm0-36.76c-7.73-10.65-21.31-16-35.43-16-18.65,0-31.7,11.72-31.7,28.24,0,16.25,13,28,31.7,28,14.12,0,27.7-5.33,35.43-16Z"/><path class="cls-1" d="M493.86,265.14V87.46h20v19.18a53.78,53.78,0,0,1,43.42-22.38c33.83,0,57.27,25.58,57.27,67.4,0,41.56-23.44,67.66-57.27,67.66-17.58,0-33-8.26-43.42-22.64v68.46Zm58.34-163c-15.72,0-31.44,9.32-38.36,20.51V180.7c6.92,11.18,22.64,20.77,38.36,20.77,25.84,0,41.29-21.31,41.29-49.81S578,102.11,552.2,102.11Z"/><path class="cls-1" d="M714.7,184.69c8.52,9.86,24.77,18.38,42.35,18.38,19.71,0,30.37-8.79,30.37-21.31,0-14.12-15.72-18.65-33-22.91-21.85-5.06-46.62-10.92-46.62-37.56,0-20,17.31-37,48-37,21.84,0,37.29,8.26,47.68,18.65l-9.32,13.85c-7.73-9.32-21.85-16.25-38.36-16.25-17.58,0-28.5,8-28.5,19.45,0,12.52,14.65,16.52,31.43,20.51,22.38,5.06,48.21,11.46,48.21,40,0,21.58-17.31,38.89-50.61,38.89-21,0-38.89-6.39-51.94-20.24Z"/><path class="cls-1" d="M926.48,131.41c0-22.64-11.73-29.3-29-29.3-15.45,0-30.37,9.59-38.09,20v94h-20V38.45h20v67.66c9-10.66,26.63-21.85,46.08-21.85,26.91,0,41,13.06,41,41v90.83h-20Z"/><path class="cls-1" d="M979,151.66c0-37.29,24.51-67.4,63.67-67.4s63.67,30.11,63.67,67.4-24.51,67.66-63.67,67.66S979,189,979,151.66Zm106.29,0c0-26.11-15.18-49.55-42.62-49.55s-42.89,23.44-42.89,49.55c0,26.37,15.45,49.81,42.89,49.81S1085.24,178,1085.24,151.66Z"/><path class="cls-1" d="M1138.79,87.46h20v20.78c10.39-13.59,25.3-23.44,42.89-23.44v20.51a35.44,35.44,0,0,0-8-.8c-12.25,0-29,10.12-34.89,20.51v91.1h-20Z"/><path class="cls-1" d="M1230.69,189.22V105h-21.31V87.46h21.31V52.3h20V87.46h26.1V105h-26.1V185c0,9.59,4.26,16.51,13,16.51,5.6,0,10.92-2.39,13.59-5.32l5.86,14.91c-5.06,4.8-12.26,8.26-24,8.26C1240.28,219.32,1230.69,208.4,1230.69,189.22Z"/><rect class="cls-2" x="40.58" y="43.35" width="155.46" height="199.88" rx="77.73"/><line class="cls-2" x1="118.31" y1="124.51" x2="118.31" y2="44.22"/><polyline class="cls-2" points="194.51 124.51 118.31 124.51 42.12 124.51"/><rect class="cls-3" x="102.2" y="-5.59" width="11.43" height="255.26"/><rect class="cls-3" x="176.26" y="96.01" width="46.06" height="22.98"/></svg>