<svg id="Layer_1" data-name="Layer 1" xmlns="http://www.w3.org/2000/svg" viewBox="0 0 1293.15 295.13"><defs><style>.cls-1{fill:#391563;}.cls-2{fill:none;stroke:#391563;stroke-linecap:square;stroke-miterlimit:10;stroke-width:12px;}.cls-3{fill:#fff;}</style></defs><title>nav</title><path class="cls-1" d="M112.22,100.87H39.66s8.93-63.6,72.56-70.93Z"/><path class="cls-1" d="M268.19,185V100.81H246.88V83.23h21.31V48.07h20V83.23h26.1v17.58h-26.1v79.92c0,9.59,4.26,16.52,13.05,16.52,5.59,0,10.92-2.4,13.58-5.33l5.86,14.92c-5.06,4.79-12.25,8.25-24,8.25C277.78,215.09,268.19,204.17,268.19,185Z"/><path class="cls-1" d="M423,197.25c-10.66,11.72-25.31,17.84-42.63,17.84-21.84,0-45-14.65-45-42.62,0-28.77,23.17-42.35,45-42.35,17.59,0,32.24,5.59,42.63,17.58V124.52c0-17.31-13.86-27.17-32.5-27.17-15.45,0-28,5.59-39.43,17.85l-9.32-13.85C355.56,87,372.08,80,393.12,80c27.17,0,49.82,12.25,49.82,43.42V211.9H423Zm0-36.77c-7.73-10.65-21.31-16-35.43-16-18.65,0-31.7,11.72-31.7,28.24,0,16.25,13.05,28,31.7,28,14.12,0,27.7-5.33,35.43-16Z"/><path class="cls-1" d="M474.9,260.91V83.23h20v19.18A53.8,53.8,0,0,1,538.3,80c33.83,0,57.27,25.57,57.27,67.39,0,41.56-23.44,67.66-57.27,67.66-17.59,0-33-8.25-43.43-22.64v68.46Zm58.33-163c-15.71,0-31.43,9.33-38.36,20.52v58.07c6.93,11.19,22.65,20.78,38.36,20.78,25.84,0,41.29-21.32,41.29-49.82S559.07,97.88,533.23,97.88Z"/><path class="cls-1" d="M665.73,180.46c8.53,9.86,24.78,18.38,42.36,18.38,19.71,0,30.37-8.79,30.37-21.31,0-14.12-15.72-18.64-33-22.91-21.84-5.06-46.61-10.92-46.61-37.56,0-20,17.31-37,48-37,21.84,0,37.29,8.25,47.68,18.64l-9.32,13.85c-7.73-9.32-21.85-16.24-38.36-16.24-17.59,0-28.51,8-28.51,19.44,0,12.52,14.65,16.52,31.44,20.51,22.37,5.06,48.21,11.46,48.21,40,0,21.58-17.31,38.89-50.61,38.89-21,0-38.89-6.39-51.95-20.24Z"/><path class="cls-1" d="M870.51,127.19c0-22.65-11.72-29.31-29-29.31-15.45,0-30.37,9.59-38.1,20v94h-20V34.22h20v67.66C812.44,91.22,830,80,849.47,80c26.9,0,41,13,41,41V211.9h-20Z"/><path class="cls-1" d="M914,147.43C914,110.14,938.5,80,977.66,80s63.66,30.1,63.66,67.39-24.5,67.66-63.66,67.66S914,184.73,914,147.43Zm106.29,0c0-26.1-15.19-49.55-42.62-49.55s-42.89,23.45-42.89,49.55c0,26.37,15.45,49.82,42.89,49.82S1020.28,173.8,1020.28,147.43Z"/><path class="cls-1" d="M1067.82,83.23h20V104c10.39-13.59,25.31-23.44,42.89-23.44v20.51a35.35,35.35,0,0,0-8-.8c-12.25,0-29,10.12-34.9,20.51V211.9h-20Z"/><path class="cls-1" d="M1172.73,185V100.81h-21.31V83.23h21.31V48.07h20V83.23h26.1v17.58h-26.1v79.92c0,9.59,4.26,16.52,13,16.52,5.59,0,10.92-2.4,13.58-5.33l5.86,14.92c-5.06,4.79-12.25,8.25-24,8.25C1182.32,215.09,1172.73,204.17,1172.73,185Z"/><rect class="cls-2" x="42.91" y="32.66" width="162.76" height="209.26" rx="81.38"/><line class="cls-2" x1="124.29" y1="117.62" x2="124.29" y2="32.65"/><polyline class="cls-2" points="204.06 117.62 124.29 117.62 44.52 117.62"/><rect class="cls-3" x="109.31" y="13.54" width="11.37" height="235.12"/><rect class="cls-3" x="184.96" y="93.16" width="48.22" height="18.22"/><path class="cls-3" d="M52.63,111.62s6.31-7.14,5.8-7.43-1.31-3.32-1.31-3.32H33.88L34,111.62Z"/></svg>